<svg viewBox="0 0 90 105" fill="none" xmlns="http://www.w3.org/2000/svg">
    <path d="M57.4999 96.2998H47.0999V104.5H64.5999V96.2998H58.8999H57.4999Z" fill="white"/>
    <path d="M71.7 104.5H75V96.2998H71.7V104.5Z" fill="white"/>
    <path d="M51.0999 85.2H55.1999V77H26.5999V85.2H48.8999H51.0999Z" fill="white"/>
    <path d="M65.7 77H61.5V85.2H77.5V77H67.9H65.7Z" fill="white"/>
    <path d="M49 65.9998H67.7V57.7998H49V65.9998Z" fill="white"/>
    <path d="M73.8999 65.9998H80.0999V57.7998H73.8999V65.9998Z" fill="white"/>
    <path d="M36.5 57.7998H27V65.9998H42.8V57.7998H38.8H36.5Z" fill="white"/>
    <path d="M86.3999 65.9998H89.5999V57.7998H86.3999V65.9998Z" fill="white"/>
    <path d="M15.2998 46.7H18.5998V38.5H15.2998V46.7Z" fill="white"/>
    <path d="M52.5999 46.7H59.3999V38.5H52.5999V46.7Z" fill="white"/>
    <path d="M40.6999 46.7H45.7999V38.5H25.3999V46.7H38.9999H40.6999Z" fill="white"/>
    <path d="M79.7999 38.5H66.2V46.7H83.0999V38.5H81.5H79.7999Z" fill="white"/>
    <path d="M38.8999 27.3999H60.3999V19.2H38.8999V27.3999Z" fill="white"/>
    <path d="M31.8 27.3999V19.2H0V27.3999H26H31.8Z" fill="white"/>
    <path d="M70.8 19.2H67.5V27.3999H70.8V19.2Z" fill="white"/>
    <path d="M31.6999 8.2H39.1999V0H19.8999V8.2H31.1999H31.6999Z" fill="white"/>
    <path d="M50.3999 0H47.0999V8.2H50.3999V0Z" fill="white"/>
</svg>
